<svg version="1" xmlns="http://www.w3.org/2000/svg" width="672" height="672" viewBox="0 0 504.000000 504.000000"><path d="M240.6 1.9c-.3.4-1.9.6-3.5.5-1.7-.1-3.1.1-3.1.5s-1.6.5-3.5.3c-2.5-.3-3.5 0-3.5.9 0 1.1-.2 1.1-1-.1-.6-1-1-1.1-1-.3 0 .7-.7 1.3-1.6 1.3-.9 0-1.2-.5-.8-1.3.5-.9.4-.9-.6 0-.7.6-1.9.9-2.6.6-.8-.3-2.2-.2-3.1.1-1.5.6-1.5.8-.3 1.6.9.6 1 1 .3 1-.6 0-1.5-.5-1.8-1-.5-.8-1.1-.7-2.1.1-1.1.9-1.4.8-1.4-.2 0-.9-.3-1-.8-.4-.8 1.1-2.9 1.5-7.9 1.7-1.8.1-3.3.4-3.3.7 0 .4-1 .8-2.2.9-3.8.4-5.2.7-6.6 1.6-.7.4-1.6.6-1.8.3-.3-.3-1.7.1-3.2.9-1.7.9-2.8 1-3.1.3-.2-.6-.8-.5-1.5.4-.6.7-4.2 2.4-8.1 3.7-13 4.3-33.6 15.7-41.3 22.8-2.2 2.1-4.2 3.7-4.3 3.7-1.1.1-4.8 3.3-4.3 3.7.3.4-.3.9-1.3 1.2-1 .3-2.7 2.2-3.7 4.1-1.1 1.9-2.5 3.5-3.3 3.5-.7 0-1.3.6-1.3 1.3 0 .7-.8 1.7-1.8 2.4-1.7 1-9.6 13.9-13.9 22.8-3 6.1-4 11.5-5.4 29-1 13.1-.9 23 .3 54.5 1.7 43 2.1 39.6-5.5 44.5C82.7 212 77 220 77 223c0 .7-2.1 3.8-4.6 6.9-2.5 3.1-5.7 7.8-7.1 10.6-1.4 2.7-3.2 5.8-4.1 6.8-1.8 2.1-2.8 9.1-3.7 26.7-.7 12.3-.6 12.6 2.7 22.7 1.8 5.7 3.1 10.4 2.7 10.5-.4.2.7 3.2 2.4 6.8 2.1 4.6 5.1 8.5 10.1 13.4 4.3 4.2 7.7 8.5 8.7 11 1.2 3.1 3.5 5.6 9.5 10.2l7.9 6 .7 7c.4 3.8.9 10.4 1.2 14.8.5 8.1 1.8 10.9 5.7 12.1 1.4.5 1.9 1.6 1.9 4.4 0 2.1-.6 4.3-1.2 4.8-2.2 1.6-8.5 3.1-9.9 2.3-2.6-1.7-12.6 6-15 11.5-1.9 4.2-2.8 16.2-1.4 18.5.4.6.9 2.6 1 4.3.4 5.1 1.9 7.9 7.4 13.4 4.6 4.7 15.1 11.8 27.1 18.5 5.7 3.1 37.3 17.6 40 18.3.3 0 3.2 1.1 6.5 2.4 13.1 5 36.2 11 54.5 14.2 9.4 1.6 38.7 2.2 51 1 20-1.9 24-2.8 51.5-10.8 32.5-9.5 77.3-32.5 93.4-47.8 6.5-6.2 10.6-13.5 9.7-16.8-.4-1.2-.9-4.7-1.2-7.7-.7-7.6-2.8-12.8-6.9-17.3-1.9-2.1-3.6-3.7-3.7-3.7-.2.1-1.6-.4-3.3-1-1.6-.7-5.6-1.4-8.8-1.7-4.5-.5-5.7-.9-5.3-2 .4-.8.6-2.9.6-4.6 0-2.5.8-3.7 3.3-5.5 2.9-1.9 3.6-3.3 5-9.1 1-3.9 1.7-11 1.7-16.4v-9.5l4.3-2.5c5.1-3 9.1-7.6 11.9-13.7 1.2-2.5 5-7.3 8.5-10.6 4.5-4.5 7.3-8.3 9.9-13.7 1.9-4.2 3.7-8.2 3.8-8.9.1-.7.8-3.1 1.4-5.3 1.6-5.7 2.2-13.5 1.1-13.5-.6 0-.6-.7.1-1.9.5-1.1.6-2.2.1-2.5-.5-.3-.6-2-.2-3.7.7-3.4-1.1-19.2-2.8-24.7-.5-1.7-.8-3.2-.5-3.2.8 0-4-11.6-6.4-15.5-1.3-2.2-4.2-5.8-6.3-8-2.1-2.2-4.6-6-5.7-8.5-2-4.8-9.4-12.3-13.2-13.5-2.1-.7-2.2-1-1.6-8.9.8-9.8.8-10.5.3-53.6-.2-20.2-.9-37.2-1.6-41-1.1-6.2-4.2-17.2-6.1-21.5-.5-1.1-1.7-4-2.8-6.5-3.2-7.6-8.6-15.2-16.9-23.7-8.1-8.4-16-14.3-19.3-14.6-1-.1-1.6-.5-1.4-.9.3-.4-.2-.8-1-.8-.9 0-1.6-.4-1.6-.8 0-.5-1-.8-2.1-.8-1.2.1-2.6-.8-3.3-1.9-.6-1.1-1.2-2.2-1.4-2.5-.2-.2-.7.2-1.2 1-.8 1.3-1 1.2-1-.2 0-2.2-3.5-4.1-6-3.3-2 .6-7-1.4-6.7-2.8.2-.9-8.3-4.2-14.5-5.6-2.6-.6-3.6-.6-3.1.2.4.7 0 .8-1.1.4-1-.4-2-.7-2.2-.7-.3 0-.3-.4 0-.9s-.3-1.1-1.4-1.4c-1.1-.3-2-.1-2 .5 0 .5-.6.6-1.2.1-.7-.4-1.7-.8-2.3-.9-.5-.1-1.9-.6-2.9-1-1.4-.5-1.7-.4-1.1.5.6 1 .3 1.1-1.4.2-1.1-.7-2.1-.8-2.1-.4s-.4.3-.8-.4c-.4-.6-2.5-1.4-4.7-1.6-2.2-.2-4.7-.7-5.5-1.1-2.6-1.1-21-2.2-21-1.3 0 .5-.8.3-1.7-.4-1.5-1.2-1.6-1.2-.8.1.7 1.3.6 1.3-.7.2C267 .8 247 .6 247 2.1c0 .4-1.3.4-3-.1-1.6-.5-3.2-.5-3.4-.1zM82 219.4c-.6 2-1.6 3.6-2.1 3.6-1.3 0-1.1-.7.7-4.6 2.1-4.4 3-3.7 1.4 1z"/><path d="M356.7 24.1c.7.7 1.5 1 1.8.7.3-.3-.2-.9-1.2-1.2-1.4-.6-1.5-.5-.6.5z"/></svg>